<svg width="611.997" height="611.997" xmlns="http://www.w3.org/2000/svg">
 <g>
  <title>Layer 1</title>
  <g id="svg_1">
   <g id="svg_2">
    <path fill="#ffffff" stroke-width="5" id="svg_3" d="m549.340027,390.01651h-50.692047v-50.694c0,-21.131989 -17.134003,-38.264008 -38.261993,-38.264008c-21.138,0 -38.265991,17.132019 -38.265991,38.264008v50.694h-50.696991c-21.130005,0 -38.262024,17.131989 -38.262024,38.264008c0,21.134003 17.134003,38.264008 38.262024,38.264008h50.696991v50.696991c0,21.130005 17.130005,38.263977 38.265991,38.263977c21.130005,0 38.261993,-17.133972 38.261993,-38.263977v-50.696991h50.692047c21.138,0 38.262024,-17.130005 38.262024,-38.264008c0.001953,-21.130005 -17.123047,-38.264008 -38.262024,-38.264008z"/>
    <path fill="#ffffff" stroke-width="5" id="svg_4" d="m383.85498,504.808502h-12.431976c-42.197998,0 -76.526001,-34.329987 -76.526001,-76.527985s34.328003,-76.528015 76.526001,-76.528015h12.431976v-12.429993c0,-42.197998 34.330017,-76.527985 76.529999,-76.527985c42.197998,0 76.526031,34.329987 76.526031,76.527985v12.429993h12.42804c5.072998,0 10.027954,0.507996 14.826965,1.45401c66.898987,-77.109009 63.762024,-194.319016 -9.515015,-267.606018c-37.10199,-37.099995 -86.429016,-57.532993 -138.895996,-57.532993c-39.544006,0 -77.476013,11.684998 -109.659027,33.389999c-32.184998,-21.705002 -70.116974,-33.389999 -109.658966,-33.389999c-52.464005,0 -101.791016,20.432999 -138.896008,57.534992c-76.609001,76.617004 -76.609001,201.284012 0.001999,277.904007l215.83099,215.82901c2.226013,2.221985 4.583008,4.463013 7.009003,6.664001c7.292999,6.619019 16.501007,9.929993 25.716003,9.929993c9.197998,0 18.395996,-3.300964 25.68399,-9.903015c2.447998,-2.216003 4.825989,-4.47699 7.069,-6.719971l46.584015,-46.582031c-1.03302,-5.001953 -1.577026,-10.180969 -1.577026,-15.481934v-12.432037h-0.003998l0,-0.002014z"/>
   </g>
  </g>
  <g id="svg_5"/>
  <g id="svg_6"/>
  <g id="svg_7"/>
  <g id="svg_8"/>
  <g id="svg_9"/>
  <g id="svg_10"/>
  <g id="svg_11"/>
  <g id="svg_12"/>
  <g id="svg_13"/>
  <g id="svg_14"/>
  <g id="svg_15"/>
  <g id="svg_16"/>
  <g id="svg_17"/>
  <g id="svg_18"/>
  <g id="svg_19"/>
 </g>
</svg>